<svg width="2878" height="3765" viewBox="0 0 2878 3765" fill="none" xmlns="http://www.w3.org/2000/svg">
<g clip-path="url(#clip0)">
<rect width="2827" height="3765" transform="translate(50.7177)" fill="white"/>
<path fill-rule="evenodd" clip-rule="evenodd" d="M2657.39 479.401C2780.35 487.556 2805.17 625.687 2894.02 692.613C2964.66 745.82 3095.89 755.266 3121.8 829.216C3147.75 903.303 3037.18 963.112 3014.98 1037.94C2989.25 1124.68 3053.9 1227.66 2982.94 1297.32C2909.3 1369.61 2775.55 1385.61 2657.39 1388.97C2535.96 1392.43 2388.64 1391.37 2314.14 1316.36C2238.99 1240.7 2310.9 1131.85 2306.94 1036.13C2304.38 974.232 2281.64 916.166 2295.04 855.13C2310.52 784.59 2334.55 716.32 2389.67 659.166C2462.26 583.895 2537.21 471.432 2657.39 479.401Z" fill="#4CAF50"/>
<path fill-rule="evenodd" clip-rule="evenodd" d="M2611.39 2351.4C2734.35 2359.56 2759.17 2497.69 2848.02 2564.61C2918.66 2617.82 3049.89 2627.27 3075.8 2701.22C3101.75 2775.3 2991.18 2835.11 2968.98 2909.94C2943.25 2996.68 3007.9 3099.66 2936.94 3169.32C2863.3 3241.61 2729.55 3257.61 2611.39 3260.97C2489.96 3264.43 2342.64 3263.37 2268.14 3188.36C2192.99 3112.7 2264.9 3003.85 2260.94 2908.13C2258.38 2846.23 2235.64 2788.17 2249.04 2727.13C2264.52 2656.59 2288.55 2588.32 2343.67 2531.17C2416.26 2455.89 2491.21 2343.43 2611.39 2351.4Z" fill="#FFC107"/>
<path fill-rule="evenodd" clip-rule="evenodd" d="M94.5088 1013.85C4.76688 987.351 -95.8454 972.497 -154.348 899.675C-211.715 828.267 -216.001 728.52 -207.82 637.526C-200.732 558.693 -161.673 488.241 -111.822 426.677C-68.0243 372.59 -6.61205 341.315 56.33 311.314C121.42 280.289 186.629 257.587 258.443 250.192C361.961 239.531 493.513 181.785 562.951 259.142C632.424 336.536 536.207 457.922 538.007 561.633C539.568 651.542 598.324 736.385 572.733 822.571C543.58 920.754 485.292 1022.25 389.911 1060.4C295.165 1098.29 192.507 1042.79 94.5088 1013.85Z" fill="#FF3D00"/>
<path fill-rule="evenodd" clip-rule="evenodd" d="M94.5088 2700.85C4.76688 2674.35 -95.8454 2659.5 -154.348 2586.68C-211.715 2515.27 -216.001 2415.52 -207.82 2324.53C-200.732 2245.69 -161.673 2175.24 -111.822 2113.68C-68.0243 2059.59 -6.61205 2028.32 56.33 1998.31C121.42 1967.29 186.629 1944.59 258.443 1937.19C361.961 1926.53 493.513 1868.79 562.951 1946.14C632.424 2023.54 536.207 2144.92 538.007 2248.63C539.568 2338.54 598.324 2423.39 572.733 2509.57C543.58 2607.75 485.292 2709.25 389.911 2747.4C295.165 2785.29 192.507 2729.79 94.5088 2700.85Z" fill="#1976D2"/>
</g>
<defs>
<clipPath id="clip0">
<rect width="2827" height="3765" fill="white" transform="translate(50.7177)"/>
</clipPath>
</defs>
</svg>
